<svg width="21" height="23" viewBox="0 0 21 23" fill="none" xmlns="http://www.w3.org/2000/svg">
<path d="M10.5 0C7.15606 0 4.43555 2.72051 4.43555 6.06445C4.43555 9.40839 7.15606 12.1289 10.5 12.1289C13.8439 12.1289 16.5645 9.40839 16.5645 6.06445C16.5645 2.72051 13.8439 0 10.5 0ZM10.5 10.7812C7.89916 10.7812 5.7832 8.66529 5.7832 6.06445C5.7832 3.46361 7.89916 1.34766 10.5 1.34766C13.1008 1.34766 15.2168 3.46361 15.2168 6.06445C15.2168 8.66529 13.1008 10.7812 10.5 10.7812Z" fill="#A3A3A3"/>
<path d="M12.3792 13.5215H8.62074C5.51205 13.5215 2.44412 14.9568 0.392578 18.0342V23H20.6074V18.0342C18.5588 14.9612 15.4918 13.5215 12.3792 13.5215ZM19.2598 21.6523H19.2598H1.74023V18.4466C3.31389 16.2026 5.87089 14.8691 8.62078 14.8691H12.3793C15.1292 14.8691 17.6861 16.2026 19.2598 18.4466V21.6523Z" fill="#A3A3A3"/>
</svg>
