<svg width="24" height="24" viewBox="0 0 24 24" fill="none" xmlns="http://www.w3.org/2000/svg">
<path d="M21.8049 5.99481H21.5063V3.09482C21.5063 1.8845 20.5216 0.89978 19.3113 0.89978H3.39057C1.6337 0.89978 0.18517 2.24358 0.0179557 3.95723C-0.00758115 4.07832 0.00151224 2.99936 0.00151224 19.7111C0.00151224 21.5798 1.5218 23.1001 3.39052 23.1001H21.8049C23.0152 23.1001 23.9999 22.1154 23.9999 20.905V8.18985C24 6.97954 23.0153 5.99481 21.8049 5.99481ZM3.39057 2.40754H19.3113C19.6903 2.40754 19.9986 2.71587 19.9986 3.09487V5.99486H3.39057C2.38261 5.99486 1.55747 5.19799 1.51149 4.2012C1.55742 3.20437 2.38257 2.40754 3.39057 2.40754ZM21.8049 21.5924H3.39057C2.35321 21.5924 1.50927 20.7484 1.50927 19.7111V6.93119C2.04785 7.29196 2.69504 7.50252 3.39057 7.50252H21.8049C22.1839 7.50252 22.4922 7.81085 22.4922 8.18985V11.2461H16.8191C14.887 11.2461 13.3151 12.8179 13.3151 14.75C13.3151 16.6821 14.887 18.2539 16.8191 18.2539H22.4922V20.905C22.4922 21.284 22.1839 21.5924 21.8049 21.5924ZM22.4922 16.7463H16.8191C15.7184 16.7463 14.8228 15.8508 14.8228 14.75C14.8228 13.6493 15.7183 12.7538 16.8191 12.7538H22.4922V16.7463Z" fill="#A5A5A5"/>
</svg>
