<svg width="60" height="60" viewBox="0 0 60 60" fill="none" xmlns="http://www.w3.org/2000/svg">
<path d="M10.3385 52.6596C4.00488 47.1592 0 39.0472 0 30C0 13.4314 13.4314 0 30 0C46.5686 0 60 13.4314 60 30C60 39.0539 55.9893 47.171 49.6475 52.6716L10.3385 52.6596Z" fill="#FE6A16"/>
<path d="M59.7526 33.8708L38.948 13.0663L16.8652 30L23.9663 37.1011L23.0348 37.6137L38.0892 52.668L49.6474 52.6716C55.0705 47.9679 58.7889 41.3508 59.7526 33.8708Z" fill="#F24500"/>
<path d="M30 47.8653C33.0542 47.8653 35.7616 44.757 37.4394 42.4693L35.6972 41.848C34.4659 41.4089 33.6332 40.1583 33.6332 38.7479V34.5H26.43V38.7479C26.43 40.1583 25.5973 41.4089 24.3661 41.848L22.5738 42.4871C24.2524 44.7647 26.9536 47.8653 30 47.8653Z" fill="#FFBEAA"/>
<path d="M35.697 41.848C34.4658 41.4089 33.6331 40.1583 33.6331 38.7479V34.5H29.9583V47.8641C29.9722 47.8642 29.986 47.8653 30 47.8653C33.0542 47.8653 35.7616 44.757 37.4394 42.4693L35.697 41.848Z" fill="#FAA68E"/>
<path d="M46.8933 48.295C45.585 46.236 43.6938 44.6996 41.5083 43.9203L39.3265 43.1423L37.4393 43.0843C35.7616 45.3719 33.0628 46.8385 30.0085 46.8385C26.9622 46.8385 24.0725 45.3172 22.3938 43.0398L20.688 43.1597L18.5547 43.9205C16.3692 44.6998 14.478 46.2362 13.1697 48.2951L10.3353 52.6569C15.6011 57.2311 22.4772 60 30 60C37.5146 60 44.3839 57.2371 49.6475 52.6716L46.8933 48.295Z" fill="white"/>
<path d="M49.6475 52.6716L46.8932 48.295C45.585 46.236 43.6938 44.6997 41.5082 43.9204L39.3264 43.1424L37.4393 43.0844C35.7616 45.372 33.0628 46.8386 30.0085 46.8386C29.9916 46.8386 29.975 46.8379 29.9581 46.8377V59.9995C29.9721 59.9995 29.9859 60 29.9998 60C37.5146 60 44.3839 57.2371 49.6475 52.6716Z" fill="#E9EDF5"/>
<path d="M30.0024 48.0753C33.7972 48.0753 37.1731 45.9292 39.3277 43.1427L37.4394 42.4694C35.7617 44.757 33.0543 46.2422 30 46.2422C26.9536 46.2422 24.2524 44.7647 22.5737 42.4872L20.6897 43.159C22.8449 45.9362 26.2149 48.0753 30.0024 48.0753Z" fill="#E9EDF5"/>
<path d="M37.4394 42.4694C35.7616 44.757 33.0542 46.2422 30 46.2422C29.986 46.2422 29.9722 46.2416 29.9583 46.2416V48.0746C29.973 48.0747 29.9875 48.0754 30.0023 48.0754C33.7972 48.0754 37.173 45.9293 39.3276 43.1428L37.4394 42.4694Z" fill="#CDD2E1"/>
<path d="M23.2268 27.519C23.5815 25.3579 22.1171 23.3184 19.956 22.9637C17.7949 22.609 15.7555 24.0734 15.4007 26.2345C15.046 28.3956 16.5104 30.4351 18.6715 30.7898C20.8326 31.1445 22.8721 29.6801 23.2268 27.519Z" fill="#FFBEAA"/>
<path d="M44.6163 27.5149C44.971 25.3538 43.5066 23.3143 41.3455 22.9596C39.1844 22.6049 37.1449 24.0693 36.7902 26.2304C36.4355 28.3915 37.8999 30.431 40.061 30.7857C42.2221 31.1404 44.2616 29.676 44.6163 27.5149Z" fill="#FAA68E"/>
<path d="M30 40.02C23.7696 40.02 18.7189 34.9693 18.7189 28.7389V24.8435C18.7189 18.6131 23.7696 13.5624 30 13.5624C36.2304 13.5624 41.281 18.6131 41.281 24.8435V28.7389C41.281 34.9693 36.2304 40.02 30 40.02Z" fill="#FFDECF"/>
<path d="M30 13.5626C29.9861 13.5626 29.9723 13.563 29.9583 13.5631V40.0195C29.9723 40.0195 29.9861 40.02 30 40.02C36.2304 40.02 41.2811 34.9693 41.2811 28.7389V24.8435C41.2811 18.6132 36.2304 13.5626 30 13.5626Z" fill="#FFCDBE"/>
<path d="M42.434 21.699C42.434 14.8173 36.8434 9.24118 29.956 9.26509C23.0839 9.28888 17.5659 14.9619 17.5659 21.834V25.9226C17.5659 26.7136 18.2072 27.3547 18.9981 27.3547C19.1683 19.5485 24.0269 14.7913 30 14.7913C35.973 14.7913 40.8316 19.5485 41.0018 27.3547C41.7928 27.3547 42.4339 26.7135 42.4339 25.9226V21.699H42.434Z" fill="#707789"/>
<path d="M29.9583 9.26508V14.7918C29.9723 14.7918 29.9861 14.7912 30 14.7912C35.9731 14.7912 40.8317 19.5484 41.0019 27.3546C41.793 27.3546 42.4341 26.7134 42.4341 25.9225V21.699C42.4341 14.818 36.8446 9.24247 29.9583 9.26508Z" fill="#555A66"/>
</svg>
