<svg width="24" height="20" viewBox="0 0 24 20" fill="none" xmlns="http://www.w3.org/2000/svg">
<path d="M2.5 16.5H20.5L17 13.5V5.5L14.5 1.5H8.5L5.5 5.5V13.5L2.5 16.5Z" stroke="#020B2A" stroke-width="2"/>
<mask id="path-2-inside-1_8_6" fill="white">
<path d="M11.5 19.5L10 18.5V17H13.5V18.5L11.5 19.5Z"/>
</mask>
<path d="M10 18.5H7V20.1056L8.3359 20.9962L10 18.5ZM11.5 19.5L9.8359 21.9962L11.2845 22.9619L12.8416 22.1833L11.5 19.5ZM13.5 18.5L14.8416 21.1833L16.5 20.3541V18.5H13.5ZM13.5 17H16.5V14H13.5V17ZM10 17V14H7V17H10ZM8.3359 20.9962L9.8359 21.9962L13.1641 17.0038L11.6641 16.0038L8.3359 20.9962ZM12.8416 22.1833L14.8416 21.1833L12.1584 15.8167L10.1584 16.8167L12.8416 22.1833ZM16.5 18.5V17H10.5V18.5H16.5ZM13.5 14H10V20H13.5V14ZM7 17V18.5H13V17H7Z" fill="#020B2A" mask="url(#path-2-inside-1_8_6)"/>
</svg>
