<svg width="28" height="26" viewBox="0 0 28 26" fill="none" xmlns="http://www.w3.org/2000/svg">
<path d="M11.8404 24.8298L0.0604187 0.835922C-0.131003 0.453078 0.156818 0 0.580976 0H4.66281C4.88177 0 5.08697 0.123942 5.18337 0.315364L13.7863 17.7224C14.5534 19.284 16.772 19.284 17.539 17.7224L26.1145 0.329136C26.2109 0.137714 26.4161 0.0137714 26.635 0.0137714H27.1418C27.4434 0.0137714 27.6348 0.329136 27.4985 0.589415L15.5945 24.8298C14.8275 26.3901 12.6075 26.3901 11.8404 24.8298Z" fill="white"/>
<path opacity="0.1" d="M11.8405 24.83L5.18347 0.329402C5.08707 0.124209 4.8681 0.0140381 4.69045 0.0140381H0.594846C0.143145 0.0140381 -0.117134 0.465739 0.0605172 0.84996L11.8405 24.83Z" fill="white"/>
<path opacity="0.1" d="M13.7873 17.7347L0.0614031 0.835891C-0.102476 0.439276 0.144031 0.0412836 0.526875 -3.05176e-05H4.67757C4.9103 0.0137408 5.08795 0.163849 5.17058 0.315334L13.7873 17.7347Z" fill="white"/>
</svg>
