<svg width="99" height="75" viewBox="0 0 99 75" fill="none" xmlns="http://www.w3.org/2000/svg">
<rect x="78.8806" width="32.4296" height="91.7411" rx="16.2148" transform="rotate(59.2961 78.8806 0)" fill="#DED5FA"/>
<path d="M18.218 22.3369C10.8012 23.0994 5.4069 29.73 6.1694 37.1468L7.30779 48.2196C8.07029 55.6364 14.7009 61.0307 22.1176 60.2682L83.5033 53.9572C90.9201 53.1947 96.3144 46.5641 95.5519 39.1474L94.4135 28.0745C93.651 20.6578 87.0204 15.2635 79.6037 16.026L18.218 22.3369Z" fill="#222222" stroke="#DED5FA"/>
<path d="M17.1668 20.8396C9.4754 21.6303 3.88128 28.5065 4.67203 36.1979L6.04889 49.5905C6.83964 57.2819 13.7158 62.876 21.4073 62.0853L84.4685 55.602C92.16 54.8113 97.7541 47.9351 96.9634 40.2437L95.5865 26.8511C94.7957 19.1597 87.9195 13.5656 80.2281 14.3563L17.1668 20.8396Z" stroke="#222222" stroke-width="2"/>
<path d="M29.3393 49.301L33.1471 48.8537L31.7642 37.0816L34.3653 36.7761L34.003 33.6923L31.4019 33.9978L31.3295 33.3811C31.1342 31.7185 31.6816 31.0561 33.5114 30.8955L33.1397 27.7313C28.9438 28.1155 27.0775 30.0474 27.5059 33.6943L27.5941 34.4452L25.9047 34.6436L26.267 37.7274L27.9564 37.529L29.3393 49.301ZM41.6022 40.3572C41.2651 37.4879 42.5051 36.4723 44.7308 36.2108L45.7229 36.0943L45.2599 32.1524C43.1951 32.395 41.7563 33.5698 40.9973 35.2086L40.7264 32.9024L36.9722 33.3435L38.7174 48.1993L42.4716 47.7583L41.6022 40.3572ZM55.066 34.0996C56.9968 33.8728 58.697 34.9236 58.9806 36.8748L51.9281 37.7033C51.9836 35.6307 53.2694 34.3106 55.066 34.0996ZM62.9817 40.6186L58.9325 41.0942C58.5664 42.1431 57.776 43.0515 56.1671 43.2406C54.29 43.4611 52.6434 42.404 52.1974 40.2271L63.0577 38.9513C63.0814 38.4592 63.0515 37.9734 62.9948 37.4907C62.4751 33.0661 59.1015 30.4992 54.811 31.0032C50.4133 31.5198 47.706 34.8555 48.2572 39.5482C48.8054 44.2141 52.2956 46.8489 56.6129 46.3417C60.2867 45.9101 62.4985 43.4483 62.9817 40.6186ZM72.1526 32.0923C74.0833 31.8655 75.7835 32.9163 76.0671 34.8676L69.0146 35.6961C69.0702 33.6234 70.356 32.3034 72.1526 32.0923ZM80.0683 38.6113L76.0191 39.087C75.653 40.1359 74.8626 41.0443 73.2536 41.2333C71.3765 41.4538 69.73 40.3967 69.2839 38.2199L80.1442 36.9441C80.168 36.4519 80.1381 35.9661 80.0814 35.4834C79.5616 31.0589 76.1881 28.4919 71.8976 28.996C67.4998 29.5126 64.7925 32.8482 65.3438 37.541C65.8919 42.2069 69.3822 44.8417 73.6995 44.3345C77.3732 43.9029 79.5851 41.441 80.0683 38.6113Z" fill="#DED5FA"/>
</svg>
