<svg width="24" height="31" viewBox="0 0 24 31" fill="none" xmlns="http://www.w3.org/2000/svg">
<path d="M22.6056 18.7172C22.1836 17.6999 21.3592 16.8561 20.1322 16.1862C22.0344 15.7873 23.1612 14.5401 23.5135 12.4443C23.647 11.6859 23.6165 10.989 23.4219 10.3524C23.2271 9.71568 22.8837 9.1531 22.39 8.66402C21.8969 8.17466 21.3312 7.7505 20.6947 7.39117C20.058 7.03179 19.3071 6.69254 18.4425 6.37372L19.5928 2.1351L17.0028 1.43221L15.8845 5.55307C15.436 5.43135 14.749 5.25693 13.8235 5.02987L14.9509 0.875378L12.3606 0.172398L11.2103 4.41102C10.8371 4.32182 10.2918 4.17997 9.57417 3.98522L6.01305 3.00058L5.26444 5.75909L7.13131 6.26573C7.98353 6.497 8.37903 7.01376 8.31789 7.8157L7.00782 12.6431C7.12011 12.6736 7.20815 12.7036 7.27245 12.7331L7.00322 12.6601L5.16832 19.4214C4.92356 19.9688 4.52077 20.1667 3.96004 20.0145L2.09329 19.5079L0.736454 22.4445L4.10046 23.3574C4.31355 23.4153 4.62095 23.5017 5.02342 23.6164C5.42549 23.7316 5.72736 23.8165 5.92925 23.8713L4.7653 28.1603L7.35608 28.8634L8.50635 24.6248C8.97406 24.7641 9.65654 24.9552 10.5536 25.1986L9.40794 29.4202L11.998 30.1231L13.162 25.8341C14.0938 26.0389 14.9322 26.1767 15.6775 26.246C16.4232 26.3155 17.157 26.3073 17.8787 26.2201C18.6004 26.1332 19.2332 25.9525 19.7769 25.6787C20.3208 25.4053 20.8176 25.0041 21.2684 24.4763C21.7183 23.9481 22.0909 23.2968 22.3852 22.5217C22.9545 21.0032 23.0277 19.7348 22.6056 18.7172ZM13.0523 8.07069C13.1309 8.092 13.3531 8.14927 13.7191 8.24251C14.0852 8.33569 14.3894 8.41228 14.632 8.47205C14.8746 8.53195 15.196 8.63422 15.5963 8.77897C15.9964 8.92368 16.329 9.06219 16.5941 9.19421C16.8591 9.32623 17.1426 9.50254 17.4437 9.72271C17.7455 9.94292 17.9718 10.173 18.1232 10.4127C18.275 10.6525 18.382 10.9345 18.4443 11.2584C18.5071 11.5824 18.4882 11.9294 18.3878 12.2993C18.3025 12.6133 18.1745 12.8857 18.0037 13.1164C17.8331 13.3469 17.6228 13.5216 17.374 13.6407C17.1252 13.7598 16.8762 13.855 16.6282 13.926C16.3803 13.9971 16.08 14.027 15.728 14.0157C15.3761 14.0045 15.0706 13.9878 14.812 13.9657C14.553 13.9436 14.2364 13.8909 13.8617 13.8072C13.487 13.7234 13.2035 13.6588 13.0115 13.6126C12.8193 13.5664 12.5587 13.4957 12.2293 13.4003C11.8998 13.305 11.7074 13.2496 11.6512 13.2343L13.0525 8.07068L13.0524 8.07063L13.0523 8.07069ZM17.0169 21.4443C16.8401 21.6734 16.642 21.8605 16.4222 22.0057C16.2022 22.1503 15.9349 22.2585 15.6208 22.3296C15.3067 22.4011 15.0082 22.4462 14.7262 22.466C14.4437 22.4861 14.1112 22.4797 13.7288 22.4484C13.3456 22.4167 13.0134 22.3774 12.7308 22.331C12.4485 22.2845 12.1146 22.2179 11.7286 22.1314C11.3431 22.0444 11.0434 21.9723 10.8304 21.9145C10.6173 21.8567 10.349 21.7806 10.0253 21.6868C9.70135 21.5933 9.49487 21.5342 9.40508 21.5098L10.948 15.8245C11.0376 15.8488 11.3054 15.9156 11.7515 16.0244C12.1977 16.1334 12.5605 16.2262 12.8409 16.3023C13.1212 16.3784 13.5037 16.4999 13.9881 16.6678C14.4721 16.835 14.8734 16.9978 15.1918 17.1565C15.5098 17.3151 15.8487 17.5183 16.2089 17.7667C16.5689 18.0148 16.845 18.2733 17.037 18.5421C17.2289 18.8113 17.3663 19.125 17.4492 19.4847C17.5326 19.8443 17.5193 20.2261 17.4097 20.6298C17.3243 20.9441 17.1936 21.2152 17.0169 21.4443Z" fill="black"/>
</svg>
