<svg width="22" height="26" viewBox="0 0 22 26" fill="none" xmlns="http://www.w3.org/2000/svg">
<path d="M4.16541 24.4842C4.92266 25.4475 6.0678 26 7.3073 26H20.2745C21.2276 26 22 25.2418 22 24.3062C22 23.3707 21.2276 22.6124 20.2745 22.6124H7.3073C7.08589 22.6124 6.95547 22.4884 6.8975 22.4146C6.83954 22.3408 6.75057 22.1857 6.80651 21.9756L8.93503 14.0062L13.9719 12.1748C14.8656 11.85 15.3216 10.8754 14.9907 9.99837C14.6597 9.12104 13.6672 8.67312 12.7735 8.99831L10.0037 10.0053L12.1086 2.1236C12.3502 1.21881 11.7989 0.292856 10.8772 0.0556599C9.95514 -0.181205 9.0122 0.359681 8.77057 1.2648L6.0523 11.4417L1.12664 13.2328C0.232909 13.5576 -0.223057 14.5322 0.107881 15.4092C0.365689 16.0927 1.02487 16.5151 1.72617 16.5151C1.92501 16.5151 2.12755 16.4811 2.32503 16.4093L4.98366 15.443L3.46849 21.1165C3.15406 22.2935 3.40816 23.5209 4.16541 24.4842Z" fill="black"/>
</svg>
