<svg width="487" height="112" viewBox="0 0 487 112" fill="none" xmlns="http://www.w3.org/2000/svg">
<path d="M0.5 48.5L11.5 49.5L14 48.5L14.5 47.5H19.5L20.5 48.5H36.5L37.5 47.5H41.5L42.5 48.5L44.5 49L45.5 47.5H46.5L47.5 47L48 46.5H48.5V40.5H50.5L51.5 39.5H53.5L55.5 41.5H57.5L58.5 41L62.5 40.5L63 41.5H65.5L67.5 39.5H73.5L74.5 40.5H76.5L79.5 38.5H85.5L86.5 37L88.5 34.5L89.5 35.5H91.5L92.5 34.5H101.5L104.5 32.5L105.5 33.5H108L112.5 29.5H113.5L114.5 31.5L115.5 32.5H116.5L117.5 31.5H118.5L119.5 32.5L120.5 33.5H131.5H132.5L133.5 32.5L134.5 33.5L136 34.5L140.5 30.5H147.5L148.5 30V25.5L149.5 24.5H150.5L151.5 25.5H153.5L154.5 26.5H157.5V27.5H160.5L161.5 28.5H163V26.5L164.5 25.5H165.5L169.5 28.5H170.5L171.5 27.5L172.5 27L177 30.5L179 29.5H184.5L185.5 30.5V31.5L186.5 32.5L187.5 31.5L188.5 30.5H189.5L191.5 32.5H192.5L194 31.5L196 30.5H197.5L198.5 29.5H202.5L204.5 26.5L205.5 25.5L206.5 26.5H210.5L213 25L213.5 24.5L217.5 28.5H220.5L221.5 28L222.5 27.5L223.5 28.5H224.5L225.5 29.5L226.5 30.5H234L235 31.5H236L236.5 30.5H241.5V27.5L242.5 26.5H245.5V25.5L246.5 25L247.5 24.5L248.5 25.5L250.5 24.5L254.5 26.5H259L260.5 26L263 25.5L263.5 23.5H268L269.5 22.5H270.5L271.5 24L272.5 25L273.5 23.5L276.5 21.5H279L280.5 22.5H285.5V21.5H288.5L289.5 22.5H293L294 21.5H296.5L297 22.5H299.5L300.5 21.5H302.5L304.5 23.5H305.5L306.5 22.5H309.5L310 23.5H310.5L311 22.5H315.5L317.5 25.5H318.5L319.5 24.5L323.5 22.5H327L327.5 24L329.5 25.5L332.5 26L337 25.5L339 24.5L340.5 23.5V21.5L345 21L346 20.5H348V21.5L349.5 21L351.5 20V21.6932C351.667 22.1288 352.1 23 352.5 23C352.9 23 353.667 23.3333 354 23.5L355.5 24L357 23.5L362.5 22L364 19L366 20.5L368 20L369 18L370 15.5V15L371 17.5L371.5 18L373.5 17.5V17L373 16.5C373 16.1667 373 15.4 373 15C373 14.5 372.5 13.5 373 13.5C373.5 13.5 373.988 14.5 374.244 15C374.449 15.4 375.5 15.1667 376 15L377.5 13.5L378 13L380.5 12.5V7.5H382L382.5 6.5H383.5V4L384.5 1.5H386L388.5 4.5L391 2.5H392.5L393.5 4.5H394.5V3L395.5 2.5L396.5 3L397 4.5L397.5 92.5L398.5 94V110L403 109.5L405.5 107.5L407 108.5H412L412.5 107.5H415.5L416 108.5H418.5L419.5 109.5L420.5 110.5L428 110L428.5 48L433 47.5L441.5 43.5C441.833 43.3333 442.5 43.1 442.5 43.5C442.5 43.9 442.5 46.3333 442.5 47.5C443 47.5 444.1 47.5 444.5 47.5C444.9 47.5 445 48.1667 445 48.5H448.5V49.5H451.5L452.5 50.5H453.5L454 52.5H458.5L459.5 51.5H463L464 50.5H465.5L466.5 51.5L467.5 53H467.893H469L470.5 52.5L472.5 51.5L474 51L474.5 49.5V37L478 36.5L478.5 35.5V30.5L480.5 29.5H485L485.5 28.5" stroke="#99CAF4" stroke-width="2"/>
<circle cx="364.5" cy="17.5" r="11.5" fill="white"/>
<circle cx="365" cy="18" r="8" fill="#7FBCF0"/>
</svg>
